<?xml version="1.0" standalone="no"?>
<!DOCTYPE svg PUBLIC "-//W3C//DTD SVG 20010904//EN"
 "http://www.w3.org/TR/2001/REC-SVG-20010904/DTD/svg10.dtd">
<svg version="1.0" xmlns="http://www.w3.org/2000/svg"
 width="16.000000pt" height="16.000000pt" viewBox="0 0 16.000000 16.000000"
 preserveAspectRatio="xMidYMid meet">

<g transform="translate(0.000000,16.000000) scale(0.100000,-0.100000)"
fill="#000000" stroke="none">
<path d="M22 127 c-29 -31 -29 -82 -1 -98 27 -14 80 -14 107 0 30 16 39 79 14
103 -11 11 -28 18 -38 16 -18 -3 -17 -5 4 -23 29 -25 29 -70 1 -85 -29 -16
-68 -4 -78 23 -7 18 -3 28 22 55 28 29 29 32 11 32 -11 0 -30 -10 -42 -23z"/>
</g>
</svg>
