<svg id="visual" viewBox="0 0 960 540" width="960" height="540" xmlns="http://www.w3.org/2000/svg" xmlns:xlink="http://www.w3.org/1999/xlink" version="1.1"><rect x="0" y="0" width="960" height="540" fill="#FFFFFF"></rect><defs><linearGradient id="grad1_0" x1="43.8%" y1="0%" x2="100%" y2="100%"><stop offset="14.444444444444446%" stop-color="#ff7b42" stop-opacity="1"></stop><stop offset="85.55555555555554%" stop-color="#ff7b42" stop-opacity="1"></stop></linearGradient></defs><defs><linearGradient id="grad1_1" x1="43.8%" y1="0%" x2="100%" y2="100%"><stop offset="14.444444444444446%" stop-color="#ff7b42" stop-opacity="1"></stop><stop offset="85.55555555555554%" stop-color="#ffbe9e" stop-opacity="1"></stop></linearGradient></defs><defs><linearGradient id="grad1_2" x1="43.8%" y1="0%" x2="100%" y2="100%"><stop offset="14.444444444444446%" stop-color="#ffffff" stop-opacity="1"></stop><stop offset="85.55555555555554%" stop-color="#ffbe9e" stop-opacity="1"></stop></linearGradient></defs><defs><linearGradient id="grad2_0" x1="0%" y1="0%" x2="56.3%" y2="100%"><stop offset="14.444444444444446%" stop-color="#ff7b42" stop-opacity="1"></stop><stop offset="85.55555555555554%" stop-color="#ff7b42" stop-opacity="1"></stop></linearGradient></defs><defs><linearGradient id="grad2_1" x1="0%" y1="0%" x2="56.3%" y2="100%"><stop offset="14.444444444444446%" stop-color="#ffbe9e" stop-opacity="1"></stop><stop offset="85.55555555555554%" stop-color="#ff7b42" stop-opacity="1"></stop></linearGradient></defs><defs><linearGradient id="grad2_2" x1="0%" y1="0%" x2="56.3%" y2="100%"><stop offset="14.444444444444446%" stop-color="#ffbe9e" stop-opacity="1"></stop><stop offset="85.55555555555554%" stop-color="#ffffff" stop-opacity="1"></stop></linearGradient></defs><g transform="translate(960, 0)"><path d="M0 378C-37.8 341.5 -75.6 304.9 -119.4 288.3C-163.2 271.6 -212.9 274.7 -254.6 254.6C-296.3 234.4 -330 191 -349.2 144.7C-368.5 98.3 -373.2 49.2 -378 0L0 0Z" fill="#ffdece"></path><path d="M0 252C-25.2 227.6 -50.4 203.3 -79.6 192.2C-108.8 181 -141.9 183.1 -169.7 169.7C-197.5 156.3 -220 127.3 -232.8 96.4C-245.6 65.6 -248.8 32.8 -252 0L0 0Z" fill="#ff9d70"></path><path d="M0 126C-12.6 113.8 -25.2 101.6 -39.8 96.1C-54.4 90.5 -71 91.6 -84.9 84.9C-98.8 78.1 -110 63.7 -116.4 48.2C-122.8 32.8 -124.4 16.4 -126 0L0 0Z" fill="#ff7b42"></path></g><g transform="translate(0, 540)"><path d="M0 -378C37 -333.4 74.1 -288.9 109.8 -265.2C145.6 -241.4 180.1 -238.5 224.2 -224.2C268.3 -209.8 322 -183.9 349.2 -144.7C376.5 -105.4 377.2 -52.7 378 0L0 0Z" fill="#ffdece"></path><path d="M0 -252C24.7 -222.3 49.4 -192.6 73.2 -176.8C97.1 -161 120 -159 149.4 -149.4C178.8 -139.9 214.7 -122.6 232.8 -96.4C251 -70.3 251.5 -35.1 252 0L0 0Z" fill="#ff9d70"></path><path d="M0 -126C12.3 -111.1 24.7 -96.3 36.6 -88.4C48.5 -80.5 60 -79.5 74.7 -74.7C89.4 -69.9 107.3 -61.3 116.4 -48.2C125.5 -35.1 125.7 -17.6 126 0L0 0Z" fill="#ff7b42"></path></g></svg>