<svg id="visual" viewBox="0 0 540 960" width="540" height="960" xmlns="http://www.w3.org/2000/svg" xmlns:xlink="http://www.w3.org/1999/xlink" version="1.1"><rect x="0" y="0" width="540" height="960" fill="#FFFFFF"></rect><defs><linearGradient id="grad1_0" x1="0%" y1="0%" x2="100%" y2="100%"><stop offset="30%" stop-color="#ff7b42" stop-opacity="1"></stop><stop offset="70%" stop-color="#ff7b42" stop-opacity="1"></stop></linearGradient></defs><defs><linearGradient id="grad1_1" x1="0%" y1="0%" x2="100%" y2="100%"><stop offset="30%" stop-color="#ff7b42" stop-opacity="1"></stop><stop offset="70%" stop-color="#ffbe9e" stop-opacity="1"></stop></linearGradient></defs><defs><linearGradient id="grad1_2" x1="0%" y1="0%" x2="100%" y2="100%"><stop offset="30%" stop-color="#ffffff" stop-opacity="1"></stop><stop offset="70%" stop-color="#ffbe9e" stop-opacity="1"></stop></linearGradient></defs><defs><linearGradient id="grad2_0" x1="0%" y1="0%" x2="100%" y2="100%"><stop offset="30%" stop-color="#ff7b42" stop-opacity="1"></stop><stop offset="70%" stop-color="#ff7b42" stop-opacity="1"></stop></linearGradient></defs><defs><linearGradient id="grad2_1" x1="0%" y1="0%" x2="100%" y2="100%"><stop offset="30%" stop-color="#ffbe9e" stop-opacity="1"></stop><stop offset="70%" stop-color="#ff7b42" stop-opacity="1"></stop></linearGradient></defs><defs><linearGradient id="grad2_2" x1="0%" y1="0%" x2="100%" y2="100%"><stop offset="30%" stop-color="#ffbe9e" stop-opacity="1"></stop><stop offset="70%" stop-color="#ffffff" stop-opacity="1"></stop></linearGradient></defs><g transform="translate(540, 0)"><path d="M0 378C-52.2 368.3 -104.4 358.6 -135.9 328C-167.3 297.3 -178.1 245.7 -215.7 215.7C-253.3 185.6 -317.7 177 -349.2 144.7C-380.8 112.3 -379.4 56.1 -378 0L0 0Z" fill="#ffdece"></path><path d="M0 252C-34.8 245.5 -69.6 239.1 -90.6 218.7C-111.5 198.2 -118.7 163.8 -143.8 143.8C-168.8 123.7 -211.8 118 -232.8 96.4C-253.8 74.9 -252.9 37.4 -252 0L0 0Z" fill="#ff9d70"></path><path d="M0 126C-17.4 122.8 -34.8 119.5 -45.3 109.3C-55.8 99.1 -59.4 81.9 -71.9 71.9C-84.4 61.9 -105.9 59 -116.4 48.2C-126.9 37.4 -126.5 18.7 -126 0L0 0Z" fill="#ff7b42"></path></g><g transform="translate(0, 960)"><path d="M0 -378C48.4 -372.5 96.7 -367.1 144.7 -349.2C192.6 -331.4 240 -301.1 258.8 -258.8C277.6 -216.5 267.6 -162.2 282.7 -117.1C297.8 -72 337.9 -36 378 0L0 0Z" fill="#ffdece"></path><path d="M0 -252C32.2 -248.4 64.5 -244.7 96.4 -232.8C128.4 -220.9 160 -200.7 172.5 -172.5C185 -144.3 178.4 -108.2 188.5 -78.1C198.5 -48 225.3 -24 252 0L0 0Z" fill="#ff9d70"></path><path d="M0 -126C16.1 -124.2 32.2 -122.4 48.2 -116.4C64.2 -110.5 80 -100.4 86.3 -86.3C92.5 -72.2 89.2 -54.1 94.2 -39C99.3 -24 112.6 -12 126 0L0 0Z" fill="#ff7b42"></path></g></svg>