<svg xmlns="http://www.w3.org/2000/svg" width="960" height="540" xmlns:v="https://vecta.io/nano"><path fill="#fff" d="M0 0h960v540H0z"/><path d="M960 378c-37.8-36.5-75.6-73.1-119.4-89.7-43.8-16.7-93.5-13.6-135.2-33.7-41.7-20.2-75.4-63.6-94.6-109.9C591.5 98.3 586.8 49.2 582 0h378z" fill="#ffdece"/><path d="M960 252c-25.2-24.4-50.4-48.7-79.6-59.8-29.2-11.2-62.3-9.1-90.1-22.5s-50.3-42.4-63.1-73.3C714.4 65.6 711.2 32.8 708 0h252z" fill="#ff9d70"/><path d="M960 126c-12.6-12.2-25.2-24.4-39.8-29.9-14.6-5.6-31.2-4.5-45.1-11.2-13.9-6.8-25.1-21.2-31.5-36.7-6.4-15.4-8-31.8-9.6-48.2h126z" fill="#ff7b42"/><path d="M0 162c37 44.6 74.1 89.1 109.8 112.8 35.8 23.8 70.3 26.7 114.4 41 44.1 14.4 97.8 40.3 125 79.5 27.3 39.3 28 92 28.8 144.7H0z" fill="#ffdece"/><path d="M0 288c24.7 29.7 49.4 59.4 73.2 75.2C97.1 379 120 381 149.4 390.6c29.4 9.5 65.3 26.8 83.4 53 18.2 26.1 18.7 61.3 19.2 96.4H0z" fill="#ff9d70"/><path d="M0 414c12.3 14.9 24.7 29.7 36.6 37.6s23.4 8.9 38.1 13.7 32.6 13.4 41.7 26.5 9.3 30.6 9.6 48.2H0z" fill="#ff7b42"/></svg>