<?xml version="1.0" encoding="UTF-8" standalone="no"?>
<!-- Created with Inkscape (http://www.inkscape.org/) -->
<svg xmlns:dc="http://purl.org/dc/elements/1.1/" xmlns:cc="http://web.resource.org/cc/" xmlns:rdf="http://www.w3.org/1999/02/22-rdf-syntax-ns#" xmlns:svg="http://www.w3.org/2000/svg" xmlns="http://www.w3.org/2000/svg" xmlns:sodipodi="http://inkscape.sourceforge.net/DTD/sodipodi-0.dtd" xmlns:inkscape="http://www.inkscape.org/namespaces/inkscape" width="150pt" height="150pt" id="svg2" sodipodi:version="0.32" inkscape:version="0.43" version="1.0" sodipodi:docbase="/home/Omni/Desktop/HU SVG/kangxi radicals yong style svg" sodipodi:docname="173 - 雨 - yu3 - rain.svg">
  <defs id="defs4"/>
  <sodipodi:namedview id="base" pagecolor="#ffffff" bordercolor="#666666" borderopacity="1.0" inkscape:pageopacity="0.0" inkscape:pageshadow="2" inkscape:zoom="1.5455366" inkscape:cx="145.04791" inkscape:cy="149.95518" inkscape:document-units="px" inkscape:current-layer="layer1" inkscape:window-width="990" inkscape:window-height="709" inkscape:window-x="0" inkscape:window-y="0" showguides="true" inkscape:guide-bbox="true"/>
  <metadata id="metadata7">
    <rdf:RDF>
      <cc:Work rdf:about="">
        <dc:format>image/svg+xml</dc:format>
        <dc:type rdf:resource="http://purl.org/dc/dcmitype/StillImage"/>
      </cc:Work>
    </rdf:RDF>
  </metadata>
  <g inkscape:label="Layer 1" inkscape:groupmode="layer" id="layer1">
    <path sodipodi:nodetypes="cccccccccccc" id="path4728" d="M 10.423066,24.173014 C 25.382796,22.832974 33.566206,22.661294 47.123886,21.321244 C 71.961426,19.294494 118.85724,16.891074 145.7979,11.592894 C 152.38056,10.060514 159.66415,9.4628041 164.84492,10.734504 C 169.48975,12.506914 175.06912,15.681374 179.01286,21.192564 C 181.0062,24.023664 178.0927,27.322121 172.6085,26.881781 C 164.94024,26.455771 161.01046,25.562414 153.34227,25.136404 C 122.31938,24.208084 95.696806,26.298471 53.152356,30.205601 C 47.827066,31.016321 33.173536,33.229041 27.380986,33.572401 C 24.378186,34.356061 21.842906,33.270371 19.073806,32.418331 C 15.452566,30.501251 12.532576,29.518891 8.9113361,27.601811 C 7.2342461,26.770471 8.1276261,24.770714 10.423066,24.173014 z " style="fill:#000000;fill-opacity:1;fill-rule:evenodd;stroke:none;stroke-width:0.2;stroke-linecap:butt;stroke-linejoin:miter;stroke-miterlimit:4;stroke-dasharray:none;stroke-opacity:1"/>
    <path style="fill:#000000;fill-opacity:1;fill-rule:evenodd;stroke:#000000;stroke-width:0.46359593px;stroke-linecap:butt;stroke-linejoin:miter;stroke-opacity:1" d="M 88.184568,20.543775 C 90.388707,19.022363 99.090394,22.261851 102.09666,24.802391 C 105.34586,27.279731 101.24241,31.775227 99.915026,42.944295 C 98.37296,73.239526 98.868217,124.68922 98.996521,155.42918 C 99.304431,164.78916 94.514361,175.52558 92.820878,175.67932 C 91.707,174.79556 86.361894,171.30966 84.717292,160.8522 C 84.651269,148.77639 86.958748,114.1726 87.107072,106.43219 C 87.006607,82.362227 88.524469,46.270346 86.61692,36.029888 C 86.229477,33.511794 84.762463,30.998205 83.49132,28.393488 C 81.963185,26.265447 86.204718,23.353634 88.184568,20.543775 z " id="path4730" sodipodi:nodetypes="cccccccccc"/>
    <path style="fill:#000000;fill-opacity:1;fill-rule:evenodd;stroke:#000000;stroke-width:0.44477409px;stroke-linecap:butt;stroke-linejoin:miter;stroke-opacity:1" d="M 157.55776,45.275945 C 159.59239,43.763745 167.58934,47.039535 170.34667,49.592585 C 173.32785,52.083465 169.53361,56.561805 168.2689,67.725234 C 166.73314,98.013755 168.0882,124.23705 168.0882,154.97727 C 168.33566,164.33848 163.88543,175.05481 162.32609,175.20148 C 161.30422,174.31307 156.39776,170.80489 154.92417,160.34067 C 154.9098,148.26467 156.06978,138.89883 156.23604,131.15912 C 156.23604,107.08893 157.77179,71.003714 156.05536,60.755385 C 155.7084,58.235695 154.36776,55.716005 153.20775,53.105995 C 151.80937,50.971595 155.72464,48.077515 157.55776,45.275945 z " id="path4734" sodipodi:nodetypes="cccccccccc"/>
    <path style="fill:#000000;fill-opacity:1;fill-rule:evenodd;stroke:#000000;stroke-width:0.44477409px;stroke-linecap:butt;stroke-linejoin:miter;stroke-opacity:1" d="M 161.57624,144.82083 C 164.29103,148.84749 166.19274,153.7775 167.46204,159.24958 C 169.31666,163.95114 165.11847,171.81462 161.46239,177.87125 C 158.57673,181.2518 154.60703,183.81926 151.54075,181.23737 C 147.19075,174.85736 139.31745,165.58644 135.78048,162.63927 C 133.22742,160.60923 131.48743,158.21789 130.56048,156.54923 C 130.73135,153.51568 135.59981,156.44451 138.3905,157.47621 C 141.87054,158.63618 145.71188,159.9769 149.19191,161.13692 C 151.02229,161.69334 152.49129,160.53331 153.77962,157.74723 C 156.67963,153.10718 158.94728,150.09323 161.57624,144.82083 z " id="path4736" sodipodi:nodetypes="cccccccccc"/>
    <path sodipodi:nodetypes="cccccccccc" id="path4738" d="M 24.917741,47.21702 C 26.952371,45.70482 34.949321,48.98061 37.706651,51.53366 C 40.687831,54.02454 36.893591,58.50288 35.628881,69.666309 C 34.093121,99.954836 35.448181,126.17813 35.448181,156.91835 C 35.695641,166.27956 31.245411,176.99589 29.686071,177.14256 C 28.664201,176.25415 23.757741,172.74597 22.284151,162.28175 C 22.269781,150.20575 23.429761,140.83991 23.596021,133.1002 C 23.596021,109.03001 25.131771,72.944789 23.415341,62.69646 C 23.068381,60.17677 21.727741,57.65708 20.567731,55.04707 C 19.169351,52.91267 23.084621,50.01859 24.917741,47.21702 z " style="fill:#000000;fill-opacity:1;fill-rule:evenodd;stroke:#000000;stroke-width:0.44477409px;stroke-linecap:butt;stroke-linejoin:miter;stroke-opacity:1"/>
    <path style="fill:#000000;fill-opacity:1;fill-rule:evenodd;stroke:none;stroke-width:0.2;stroke-linecap:butt;stroke-linejoin:miter;stroke-miterlimit:4;stroke-dasharray:none;stroke-opacity:1" d="M 27.133933,49.185917 C 42.093663,47.845879 52.574163,48.248471 66.131833,46.908422 C 90.969383,44.881682 110.93409,44.775355 137.87475,39.477178 C 144.45741,37.944801 151.741,37.34709 156.92177,38.618788 C 161.5666,40.391198 167.14597,43.565655 171.08971,49.076833 C 173.08305,51.907933 170.16955,55.206379 164.68535,54.76604 C 157.01709,54.34003 153.08731,53.44668 145.41912,53.020671 C 114.39623,52.092351 98.900641,52.241671 76.099723,55.218499 C 67.328803,56.029219 49.884403,58.241939 44.091843,58.585299 C 41.089053,59.368959 38.553773,58.283269 35.784673,57.431229 C 32.163433,55.514149 29.243443,54.53179 25.622203,52.614711 C 23.945113,51.783368 24.838493,49.783617 27.133933,49.185917 z " id="path4742" sodipodi:nodetypes="cccccccccccc"/>
    <path style="fill:#000000;fill-opacity:1;fill-rule:evenodd;stroke:#000000;stroke-width:0.44477409px;stroke-linecap:butt;stroke-linejoin:miter;stroke-opacity:1" d="M 47.491883,75.482375 C 52.451316,83.833827 56.150617,92.915582 61.227366,97.532399 C 64.542757,100.46155 66.343994,100.77624 70.465484,99.525415 C 73.921037,97.818063 74.080667,93.715613 74.876704,89.875962 C 75.340177,87.37435 73.293449,84.055184 71.370272,82.197884 C 63.389911,75.87115 61.638008,76.848483 53.614192,72.939861 C 49.839797,70.982943 45.049292,71.804862 47.491883,75.482375 z " id="path4753" sodipodi:nodetypes="ccccccc"/>
    <path sodipodi:nodetypes="ccccccc" id="path4755" d="M 46.450862,119.8606 C 52.773612,127.2339 57.980722,135.54348 63.776292,139.21768 C 67.546332,141.53253 69.374852,141.53253 73.219572,139.59104 C 76.329722,137.31445 75.780922,133.24574 75.904262,129.32638 C 75.930282,126.78233 73.342852,123.86494 71.128722,122.36634 C 62.178582,117.50746 60.621022,118.77172 52.044242,116.30235 C 47.989372,115.02422 43.411802,116.65834 46.450862,119.8606 z " style="fill:#000000;fill-opacity:1;fill-rule:evenodd;stroke:#000000;stroke-width:0.44477409px;stroke-linecap:butt;stroke-linejoin:miter;stroke-opacity:1"/>
    <path style="fill:#000000;fill-opacity:1;fill-rule:evenodd;stroke:#000000;stroke-width:0.44477409px;stroke-linecap:butt;stroke-linejoin:miter;stroke-opacity:1" d="M 110.44736,75.86294 C 116.77011,83.23624 121.97722,91.54582 127.77279,95.22002 C 131.54283,97.53487 133.37135,97.53487 137.21607,95.59338 C 140.32622,93.31679 139.77742,89.24808 139.90076,85.32872 C 139.92678,82.78467 137.33935,79.86728 135.12522,78.36868 C 126.17508,73.5098 124.61752,74.77406 116.04074,72.30469 C 111.98587,71.02656 107.4083,72.66068 110.44736,75.86294 z " id="path4757" sodipodi:nodetypes="ccccccc"/>
    <path sodipodi:nodetypes="ccccccc" id="path4759" d="M 115.21105,113.7072 C 117.51952,123.14191 118.40966,132.9077 121.91942,138.80431 C 124.23653,142.57296 125.86771,143.39924 130.17482,143.40467 C 133.97807,142.77921 135.3271,138.90162 137.20823,135.46099 C 138.38107,133.20327 137.39122,129.43151 136.09324,127.09411 C 130.30471,118.71517 128.34395,119.13915 121.80869,113.06055 C 118.76901,110.08802 113.94704,109.47723 115.21105,113.7072 z " style="fill:#000000;fill-opacity:1;fill-rule:evenodd;stroke:#000000;stroke-width:0.44477409px;stroke-linecap:butt;stroke-linejoin:miter;stroke-opacity:1"/>
  </g>
</svg>