<?xml version="1.0" encoding="UTF-8" standalone="no"?>
<!-- Created with Inkscape (http://www.inkscape.org/) -->
<svg xmlns:dc="http://purl.org/dc/elements/1.1/" xmlns:cc="http://web.resource.org/cc/" xmlns:rdf="http://www.w3.org/1999/02/22-rdf-syntax-ns#" xmlns:svg="http://www.w3.org/2000/svg" xmlns="http://www.w3.org/2000/svg" xmlns:sodipodi="http://sodipodi.sourceforge.net/DTD/sodipodi-0.dtd" xmlns:inkscape="http://www.inkscape.org/namespaces/inkscape" width="500" height="500" id="svg2" sodipodi:version="0.32" inkscape:version="0.45" version="1.0" sodipodi:docbase="C:\Users\squilibob\Desktop" sodipodi:docname="あ 教科書体.svg" inkscape:output_extension="org.inkscape.output.svg.inkscape" sodipodi:modified="true">
  <defs id="defs4"/>
  <sodipodi:namedview id="base" pagecolor="#ffffff" bordercolor="#666666" borderopacity="1.0" gridtolerance="10000" guidetolerance="10" objecttolerance="10" inkscape:pageopacity="0.0" inkscape:pageshadow="2" inkscape:zoom="2" inkscape:cx="236.79141" inkscape:cy="240.01852" inkscape:document-units="px" inkscape:current-layer="layer1" inkscape:window-width="1600" inkscape:window-height="1150" inkscape:window-x="-8" inkscape:window-y="-8"/>
  <metadata id="metadata7">
    <rdf:RDF>
      <cc:Work rdf:about="">
        <dc:format>image/svg+xml</dc:format>
        <dc:type rdf:resource="http://purl.org/dc/dcmitype/StillImage"/>
        <dc:title>あ</dc:title>
        <dc:date>2007-03-15</dc:date>
        <dc:creator>
          <cc:Agent>
            <dc:title>Squilibob</dc:title>
          </cc:Agent>
        </dc:creator>
        <dc:rights>
          <cc:Agent>
            <dc:title>in the public domain</dc:title>
          </cc:Agent>
        </dc:rights>
        <dc:source>http://en.wikipedia.org/wiki/Image:%E3%81%82_%E6%95%99%E7%A7%91%E6%9B%B8%E4%BD%93.png</dc:source>
        <dc:language>Japanese</dc:language>
        <dc:subject>
          <rdf:Bag>
            <rdf:li>Japanese syllabary</rdf:li>
            <rdf:li>Hiragana あ (A)</rdf:li>
          </rdf:Bag>
        </dc:subject>
        <dc:description>Japanese syllabary, Hiragana あ (A)</dc:description>
        <cc:license rdf:resource="http://web.resource.org/cc/PublicDomain"/>
      </cc:Work>
      <cc:License rdf:about="http://web.resource.org/cc/PublicDomain">
        <cc:permits rdf:resource="http://web.resource.org/cc/Reproduction"/>
        <cc:permits rdf:resource="http://web.resource.org/cc/Distribution"/>
        <cc:permits rdf:resource="http://web.resource.org/cc/DerivativeWorks"/>
      </cc:License>
    </rdf:RDF>
  </metadata>
  <g inkscape:label="Layer 1" inkscape:groupmode="layer" id="layer1" transform="translate(-121.42857,-236.6479)">
    <path style="fill:#000000;fill-opacity:1" d="M 402.57266,681.59278 C 399.89073,679.71428 399.71576,677.03357 402.13234,674.8466 C 403.11254,673.95952 408.62504,671.60647 414.38234,669.61758 C 436.47307,661.98623 458.0512,649.83564 475.8867,634.98462 C 488.29285,624.65445 493.62542,618.28602 499.2806,607.04644 C 506.03278,593.62662 507.80102,583.4637 507.06016,562.33353 C 506.48443,545.91291 505.41287,540.33481 500.96992,530.63012 C 491.48449,509.91122 470.40741,497.96908 439.35015,495.71675 L 430.85015,495.10032 L 421.36054,509.85534 C 400.01339,543.04721 374.70465,577.09082 355.43521,598.53366 C 351.53843,602.86996 348.35015,606.78628 348.35015,607.23659 C 348.35015,607.68691 350.44238,613.58903 352.99954,620.35241 C 358.04175,633.68843 358.74389,639.17278 356.4514,647.31439 C 354.88005,652.89494 350.85031,657.85305 347.19631,658.70168 C 345.07058,659.19537 343.73667,658.59004 340.49321,655.65976 C 337.29551,652.77084 335.59289,649.82476 332.39705,641.65085 C 330.17126,635.958 328.35015,630.84285 328.35015,630.28386 C 328.35015,627.49393 325.34103,628.75412 313.6236,636.4512 C 290.90165,651.37704 269.12117,661.53239 248.74594,666.70099 C 237.30176,669.60404 231.97014,669.75768 224.43804,667.40144 C 212.11619,663.54684 206.49115,653.29661 205.61773,633.10612 C 204.72112,612.37947 210.25337,594.8041 222.91661,578.14948 C 228.49662,570.81068 248.7814,551.24198 259.35376,542.99861 C 273.95964,531.61027 298.76702,516.00892 312.44845,509.60738 L 316.04674,507.92374 L 316.6925,492.25925 C 317.41078,474.83574 319.55252,450.7739 321.98075,432.84743 C 322.86,426.35631 323.32609,420.79208 323.0165,420.48249 C 322.7069,420.1729 315.79283,420.86745 307.65188,422.02594 C 299.51093,423.18443 288.57515,424.38498 283.35015,424.69384 C 278.12515,425.00269 270.99873,425.70151 267.51366,426.24677 C 261.63078,427.16718 260.87624,427.06179 256.97363,424.77471 C 251.53432,421.58706 238.34122,407.76568 235.97622,402.77735 C 232.37462,395.18077 238.0913,390.62753 245.12938,395.48702 C 254.30104,401.81966 257.6083,402.63461 273.85015,402.56417 C 290.22257,402.49316 324.05235,398.7552 325.99886,396.80208 C 327.18183,395.6151 332.04152,369.48013 334.85967,349.14948 C 336.72169,335.71656 337.9152,314.53696 337.01277,310.9414 C 336.66763,309.56626 333.90235,305.65851 330.8677,302.25751 C 327.83305,298.85651 325.35015,295.44803 325.35015,294.68311 C 325.35015,293.52824 327.88128,290.14948 328.74643,290.14948 C 330.86331,290.14948 344.35687,295.74634 347.567,297.95589 C 356.92029,304.39378 365.28908,315.80036 365.31736,322.14948 C 365.32349,323.52448 364.63117,326.89948 363.77888,329.64948 C 362.92659,332.39948 359.62094,347.58698 356.43298,363.39948 C 351.96127,385.57953 350.94961,392.14948 352.00597,392.14948 C 352.75906,392.14948 363.83208,389.63566 376.61269,386.56322 C 399.42955,381.07808 403.32142,379.77113 412.35015,374.5621 C 416.44161,372.20158 417.57644,372.01013 424.85015,372.45331 C 438.38533,373.27801 452.4484,380.2746 453.17662,386.54616 C 453.86681,392.4901 448.68781,395.06933 422.85015,401.64931 C 410.88273,404.697 378.72412,411.22643 361.35015,414.13617 C 354.47515,415.28757 348.1446,416.44091 347.28225,416.69914 C 344.9172,417.40738 340.31435,454.14688 338.74983,484.80417 L 338.07851,497.95885 L 346.46433,494.98348 C 363.12327,489.07273 382.52949,484.09853 400.35015,481.17149 C 411.31071,479.37122 411.17515,479.4367 412.31452,475.39169 C 412.89426,473.33347 413.6182,467.59948 413.92327,462.64948 C 414.66042,450.68881 415.03346,449.14948 417.19489,449.14948 C 420.44016,449.14948 423.37562,453.68526 428.27497,466.27003 L 433.09438,478.64948 L 441.47226,479.32828 C 467.66102,481.45018 487.67126,487.50215 503.06709,497.95726 C 526.54128,513.89827 537.28613,534.85501 537.33279,564.78901 C 537.37888,594.35799 527.44645,617.62165 506.27081,637.54218 C 487.1742,655.50689 458.97425,669.10891 418.85015,679.70882 C 411.70015,681.59769 405.61278,683.14456 405.32266,683.14631 C 405.03253,683.14805 403.79503,682.44896 402.57266,681.59278 z M 265.85015,633.67761 C 277.66625,630.2016 307.20552,614.58527 320.52366,604.77374 C 322.05517,603.64547 322.08058,602.73945 320.82314,594.09517 C 318.75272,579.86214 317.41446,563.61492 316.68808,543.89321 L 316.03408,526.13694 L 310.44212,529.25606 C 301.35628,534.324 279.48791,548.9364 270.56922,555.89903 C 241.38337,578.68384 228.94451,596.91367 227.61867,618.84545 C 226.64614,634.93284 229.35992,637.53205 246.35015,636.78616 C 253.65869,636.46531 259.58569,635.52047 265.85015,633.67761 z M 352.12868,570.64379 C 368.0126,551.76775 382.65233,531.30065 397.72375,506.89948 C 405.46224,494.3706 406.12093,494.93777 388.2212,498.71708 C 374.50114,501.6139 362.38566,505.46215 348.10015,511.46077 L 338.35015,515.55489 L 338.36924,525.10219 C 338.39073,535.84629 339.97982,566.62372 340.96818,575.43829 C 341.36984,579.02046 342.04261,581.08533 342.73309,580.85517 C 343.3468,580.6506 347.57481,576.05548 352.12868,570.64379 z " id="path2184"/>
  </g>
</svg>