<?xml version="1.0" encoding="UTF-8" standalone="no"?>
<!-- Created with Inkscape (http://www.inkscape.org/) -->
<svg xmlns:dc="http://purl.org/dc/elements/1.1/" xmlns:cc="http://creativecommons.org/ns#" xmlns:rdf="http://www.w3.org/1999/02/22-rdf-syntax-ns#" xmlns:svg="http://www.w3.org/2000/svg" xmlns="http://www.w3.org/2000/svg" xmlns:sodipodi="http://sodipodi.sourceforge.net/DTD/sodipodi-0.dtd" xmlns:inkscape="http://www.inkscape.org/namespaces/inkscape" width="500" height="500" viewBox="0 0 132.29167 132.29167" version="1.1" id="svg8" inkscape:version="0.92.4 (5da689c313, 2019-01-14)" sodipodi:docname="Japanese_Katakana_kyokashotai_A.svg">
  <defs id="defs2"/>
  <sodipodi:namedview id="base" pagecolor="#ffffff" bordercolor="#666666" borderopacity="1.0" inkscape:pageopacity="0.0" inkscape:pageshadow="2" inkscape:zoom="0.7" inkscape:cx="138.92404" inkscape:cy="310.39217" inkscape:document-units="mm" inkscape:current-layer="text20" showgrid="false" units="px" inkscape:window-width="1440" inkscape:window-height="837" inkscape:window-x="-8" inkscape:window-y="-8" inkscape:window-maximized="1"/>
  <metadata id="metadata5">
    <rdf:RDF>
      <cc:Work rdf:about="">
        <dc:format>image/svg+xml</dc:format>
        <dc:type rdf:resource="http://purl.org/dc/dcmitype/StillImage"/>
        <dc:title/>
      </cc:Work>
    </rdf:RDF>
  </metadata>
  <g inkscape:label="Layer 1" inkscape:groupmode="layer" id="layer1" transform="translate(0,-164.70835)">
    <g aria-label="リ" style="font-style:normal;font-variant:normal;font-weight:normal;font-stretch:normal;font-size:25.39999962px;line-height:1.25;font-family:MHGKyokashotaiTHK;-inkscape-font-specification:MHGKyokashotaiTHK;letter-spacing:0px;word-spacing:0px;fill:#000000;fill-opacity:1;stroke:none;stroke-width:0.26458332" id="text12">
      <g aria-label="ァ" style="font-style:normal;font-variant:normal;font-weight:normal;font-stretch:normal;font-size:158.75px;line-height:1.25;font-family:MHGKyokashotaiTHK;-inkscape-font-specification:MHGKyokashotaiTHK;letter-spacing:0px;word-spacing:0px;fill:#000000;fill-opacity:1;stroke:none;stroke-width:0.07000434" id="text20">
        <path d="m 119.72774,188.68715 -11.64166,-4.86834 c -0.42334,-0.635 -1.905,0 -4.02167,1.69333 l -72.813336,12.27667 c -3.81,0.635 -8.255,0 -13.123334,-1.69333 -2.328333,-1.05833 -2.751666,-0.21167 -1.693333,2.54 0.423333,0.635 1.905,1.69333 4.021667,3.38667 1.693333,1.69333 4.445,3.175 8.255,4.86833 4.021667,-1.69333 8.255,-2.96333 13.335,-4.02167 l 61.171666,-12.48833 c 1.69334,0.635 2.11667,1.69333 1.69334,3.38667 -5.503338,5.92666 -9.948338,10.58333 -13.335005,13.97 -4.868333,4.86833 -10.16,9.73666 -15.663333,13.97 -3.386667,-3.81 -6.561667,-6.13834 -9.948334,-7.40834 -2.751667,-0.84666 -3.598333,-0.42333 -2.54,1.69334 2.328334,1.69333 3.386667,4.445 3.386667,8.255 0,2.32833 -1.905,9.73666 -6.561667,22.43666 -4.656667,12.27667 -11.641667,23.07167 -19.896667,33.02 -1.058333,2.11667 -0.635,2.75167 1.693333,1.69334 14.393334,-13.335 25.823334,-32.385 34.713334,-57.15 16.510001,-10.37167 30.056672,-20.955 40.428332,-31.32667 3.38667,-1.05833 4.23334,-2.54 2.54,-4.23333 z" style="font-size:211.66667175px;stroke-width:0.07000434" id="path26"/>
      </g>
    </g>
  </g>
</svg>