<svg xmlns="http://www.w3.org/2000/svg" width="500" height="500" xmlns:v="https://vecta.io/nano"><path d="M281.144 444.945c-2.682-1.878-2.857-4.559-.44-6.746.98-.887 6.493-3.24 12.25-5.229 22.091-7.631 43.669-19.782 61.504-34.633 12.406-10.33 17.739-16.699 23.394-27.938 6.752-13.42 8.52-23.583 7.78-44.713-.576-16.421-1.647-21.999-6.09-31.703-9.485-20.719-30.563-32.661-61.62-34.913l-8.5-.616-9.49 14.755c-21.347 33.192-46.656 67.235-65.925 88.678-3.897 4.336-7.085 8.253-7.085 8.703s2.092 6.352 4.649 13.116c5.042 13.336 5.744 18.82 3.452 26.962-1.571 5.581-5.601 10.539-9.255 11.387-2.126.494-3.46-.112-6.703-3.042-3.198-2.889-4.9-5.835-8.096-14.009-2.226-5.693-4.047-10.808-4.047-11.367 0-2.79-3.009-1.53-14.727 6.167-22.722 14.926-44.502 25.081-64.878 30.25-11.444 2.903-16.776 3.057-24.308.7-12.322-3.855-17.947-14.105-18.82-34.295-.897-20.727 4.636-38.302 17.299-54.957 5.58-7.339 25.865-26.908 36.437-35.151 14.606-11.388 39.413-26.99 53.095-33.391l3.598-1.684.646-15.664c.718-17.424 2.86-41.485 5.288-59.412.879-6.491 1.345-12.055 1.036-12.365s-7.224.385-15.365 1.543-19.077 2.359-24.302 2.668-12.351 1.008-15.836 1.553c-5.883.92-6.637.815-10.54-1.472-5.439-3.188-18.632-17.009-20.997-21.997-3.602-7.597 2.115-12.15 9.153-7.29 9.172 6.333 12.479 7.148 28.721 7.077 16.372-.071 50.202-3.809 52.149-5.762 1.183-1.187 6.043-27.322 8.861-47.653 1.862-13.433 3.056-34.613 2.153-38.208-.345-1.375-3.11-5.283-6.145-8.684s-5.518-6.809-5.518-7.574c0-1.155 2.531-4.534 3.396-4.534 2.117 0 15.61 5.597 18.821 7.806 9.353 6.438 17.722 17.844 17.75 24.194.006 1.375-.686 4.75-1.538 7.5s-4.158 17.938-7.346 33.75c-4.472 22.18-5.483 28.75-4.427 28.75.753 0 11.826-2.514 24.607-5.586 22.817-5.485 26.709-6.792 35.737-12.001 4.091-2.361 5.226-2.552 12.5-2.109 13.535.825 27.598 7.821 28.326 14.093.69 5.944-4.489 8.523-30.326 15.103-11.967 3.048-44.126 9.577-61.5 12.487-6.875 1.151-13.206 2.305-14.068 2.563-2.365.708-6.968 37.448-8.532 68.105l-.671 13.155 8.386-2.975c16.659-5.911 36.065-10.885 53.886-13.812 10.961-1.8 10.825-1.735 11.964-5.78.58-2.058 1.304-7.792 1.609-12.742.737-11.961 1.11-13.5 3.272-13.5 3.245 0 6.181 4.536 11.08 17.121l4.819 12.379 8.378.679c26.189 2.122 46.199 8.174 61.595 18.629 23.474 15.941 34.219 36.898 34.266 66.832.046 29.569-9.886 52.833-31.062 72.753-19.097 17.965-47.297 31.567-87.421 42.167l-13.527 3.437c-.29.002-1.528-.697-2.75-1.554zM144.421 397.03c11.816-3.476 41.355-19.092 54.674-28.904 1.532-1.128 1.557-2.034.299-10.679-2.07-14.233-3.409-30.48-4.135-50.202l-.654-17.756-5.592 3.119c-9.086 5.068-30.954 19.68-39.873 26.643-29.186 22.785-41.625 41.015-42.951 62.946-.973 16.087 1.741 18.687 18.731 17.941 7.309-.321 13.236-1.266 19.5-3.109zm86.279-63.034c15.884-18.876 30.524-39.343 45.595-63.744 7.738-12.529 8.397-11.962-9.503-8.182-13.72 2.897-25.836 6.745-40.121 12.744l-9.75 4.094.019 9.547c.021 10.744 1.611 41.522 2.599 50.336.402 3.582 1.074 5.647 1.765 5.417.614-.205 4.842-4.8 9.396-10.211z"/></svg>