<svg xmlns="http://www.w3.org/2000/svg" width="40.218" height="40.59" xmlns:v="https://vecta.io/nano"><path d="M18.029 15.703l-.831.087-.791.129-.791.129-.749.087-.707.129-.707.129-.665.087-.623.129-.623.129-.582.087-.541.129-.541.129-.499.129-.457.129-.457.129-.416.129v.776c0 5.26.707 9.788.707 11.857 0 .561 0 .992-.084 1.337-.042.646-.166 1.035-.374 1.165-.125 1.035-2.412-.949-2.412-2.801 0-1.25.291-3.105.291-6.209 0-7.804-1.622-6.812-1.622-8.494 0-.388.291-.646.582-.517.665.129 1.372.517 2.121 1.121 7.526-1.121 5.322-1.207 10.688-1.854-.084-2.846.084-3.879-.998-5.39-1.788.172-2.079.345-3.492.345-2.163 0-3.576-.776-3.576-1.337 0-.992 3.785.087 14.015-2.63 1.788-.646 3.16-.949 4.158-.949a4.49 4.49 0 0 1 .831.087c2.87.992 2.079 2.027-1.871 2.76-2.662.431-5.366.819-7.943 1.379 2.786 1.854 1.164.431.998 5.432 5.905-.862 8.774-.862 10.728-1.466.333-.129.665-.172.957-.172 1.289 0 3.909 1.898 3.909 2.372 0 .216-.125.517-.416.905-1.248 2.112-.957 10.953-2.245 15.997a11.463 11.886 0 0 1-1.58 3.967c-.416.862-.873 1.25-1.289 1.294h-.125c-.873 0 .25-.216-4.034-4.699-.25-.431-.416-.733-.333-.949 0-.345 2.536.561 3.287.561.623 0 1.081-.474 1.33-1.337.873-3.105 1.372-7.416 1.497-13.021 0-.302.042-.561.042-.819 0-1.294-.291-1.854-1.33-1.854-5.571.302-9.066.646-10.439.992l-.042 8.839.042 3.838c0 .776-.084 1.423-.291 2.027-.25.474-.457.862-.665.949-.166.216-.333.216-.499.043-.208-.043-.333-.345-.499-.776-.416-.949-.623-1.854-.623-2.76 0-1.854.582 0 .582-11.902zm-6.279 5.175l-.084-.087-.084-.043h-.042l-.042-.043h-.042l-.042-.043-.042-.043h-.042l-.042-.043v-.043h-.042l-.042-.043-.042-.043h-.042v-.043l-.042-.043h0l-.042-.043-.042-.043h0l-.042-.043v-.043h0l-.042-.043v-.043h-.042v-.043-.043h0v-.043-.043h0v-.043-.043h0v-.043h0v-.043h0l.042-.043h0l.042-.043h0l.042-.043h0l.042-.043h0l.042-.043h.042.042l.042-.043h.042.042.042l.042-.043h.042.042.084.042.084.042.084c1.871 0 3.078.388 3.536 1.165.125.388.208.69.208.992-.166.345-.374.561-.665.604-.915-.172-1.955-.604-3.119-1.337zm-1.373 4.484h0v-.043h0v-.043h.042v-.043h.042 0l.042-.043h0l.042-.043h.042 0l.042-.043h.042.042.042l.042-.043h.042.042.042l.042-.043h.042.042.042.042.042.042.042.084.042.042.042c1.705.043 2.87.561 3.327 1.552.166.388.208.776.084 1.121a.8.8 0 0 1-.749.517c-1.04-.129-3.741-1.983-3.741-2.846zM24.35 17.6h.084.125.125.084.125l.125.043h.084.125l.084.043h.084l.125.043h.084l.084.043.084.043.084.043h.125l.084.043.084.043.084.043.042.043.084.043.084.043.084.087.042.043.084.043.084.043.042.087.084.043.042.087.084.043.042.087.042.087c.208.302.291.69.291 1.078-.125.345-.374.561-.665.604-1.04-.087-4.326-1.379-4.326-2.285 0-.345.873-.561 1.996-.561zm-1.996 6.424v-.043h0 0v-.043h0l.042-.043h0 0l.042-.043h0l.042-.043h0 .042v-.043h.042.042 0l.042-.043h.042.042 0l.042-.043h.042.042 0 .042.042l.042-.043h0 .042.042.042.166c2.204 0 3.243.302 3.868 1.466.125.345.208.733.208 1.078-.125.388-.374.561-.749.561-1.04-.216-4.242-1.768-4.242-2.717z"/></svg>