<svg xmlns="http://www.w3.org/2000/svg" width="540" height="960" xmlns:v="https://vecta.io/nano"><path fill="#fff" d="M0 0h540v960H0z"/><path d="M540 378c-52.2-9.7-104.4-19.4-135.9-50-31.4-30.7-42.2-82.3-79.8-112.3-37.6-30.1-102-38.7-133.5-71C159.2 112.3 160.6 56.1 162 0h378z" fill="#ffdece"/><path d="M540 252c-34.8-6.5-69.6-12.9-90.6-33.3-20.9-20.5-28.1-54.9-53.2-74.9-25-20.1-68-25.8-89-47.4-21-21.5-20.1-59-19.2-96.4h252z" fill="#ff9d70"/><path d="M540 126c-17.4-3.2-34.8-6.5-45.3-16.7s-14.1-27.4-26.6-37.4-34-12.9-44.5-23.7S413.5 18.7 414 0h126z" fill="#ff7b42"/><path d="M0 582c48.4 5.5 96.7 10.9 144.7 28.8 47.9 17.8 95.3 48.1 114.1 90.4s8.8 96.6 23.9 141.7S337.9 924 378 960H0z" fill="#ffdece"/><path d="M0 708c32.2 3.6 64.5 7.3 96.4 19.2 32 11.9 63.6 32.1 76.1 60.3s5.9 64.3 16 94.4c10 30.1 36.8 54.1 63.5 78.1H0z" fill="#ff9d70"/><path d="M0 834c16.1 1.8 32.2 3.6 48.2 9.6 16 5.9 31.8 16 38.1 30.1 6.2 14.1 2.9 32.2 7.9 47.3 5.1 15 18.4 27 31.8 39H0z" fill="#ff7b42"/></svg>