<svg xmlns="http://www.w3.org/2000/svg" width="500" height="500" viewBox="0 0 132.292 132.292" xmlns:v="https://vecta.io/nano"><path d="M119.728 23.979l-11.642-4.868c-.423-.635-1.905 0-4.022 1.693L31.251 33.081c-3.81.635-8.255 0-13.123-1.693-2.328-1.058-2.752-.212-1.693 2.54.423.635 1.905 1.693 4.022 3.387 1.693 1.693 4.445 3.175 8.255 4.868 4.022-1.693 8.255-2.963 13.335-4.022l61.172-12.488c1.693.635 2.117 1.693 1.693 3.387l-13.335 13.97c-4.868 4.868-10.16 9.737-15.663 13.97-3.387-3.81-6.562-6.138-9.948-7.408-2.752-.847-3.598-.423-2.54 1.693 2.328 1.693 3.387 4.445 3.387 8.255 0 2.328-1.905 9.737-6.562 22.437-4.657 12.277-11.642 23.072-19.897 33.02-1.058 2.117-.635 2.752 1.693 1.693 14.393-13.335 25.823-32.385 34.713-57.15 16.51-10.372 30.057-20.955 40.428-31.327 3.387-1.058 4.233-2.54 2.54-4.233z"/></svg>